<svg width="132" height="108" viewBox="0 0 132 108" fill="none" xmlns="http://www.w3.org/2000/svg">
<path d="M41.0865 64.0837C34.2865 63.6837 31.9198 58.5837 31.5865 56.0837C31.5865 45.0837 27.7531 42.7503 24.5865 42.0837L15.5865 41.0837C9.08649 39.5837 8.75315 33.417 9.08648 31.5837C9.08648 25.5837 13.7531 23.417 16.0865 23.0837H23.5865C29.9865 23.4837 31.5865 16.917 31.5865 13.5837V7.08368C32.5865 1.08368 38.2532 -0.0829898 40.0865 0.0836767C46.8865 -0.716323 49.5865 4.41701 50.0865 7.08368V13.5837C50.0865 21.1837 56.7532 23.0837 60.0865 23.0837H68.0865C72.4865 23.0837 74.9198 17.417 75.5865 14.5837V8.58368C76.3865 3.38368 80.2532 1.41701 82.0865 1.08368H87.5865C93.1865 1.88368 94.2532 7.75034 94.0865 10.5837C94.0865 16.5837 89.7532 18.7503 87.5865 19.0837H80.5865C74.9865 19.0837 72.2532 25.0837 71.5865 28.0837V37.0837C73.5865 44.2837 79.4198 45.7503 82.0865 45.5837H90.0865C99.5865 40.0837 95.5865 37.5837 98.0865 28.5837C99.6528 22.9448 106.42 22.417 110.086 23.0837C115.686 24.2837 116.753 30.5837 116.586 33.5837C116.586 40.3837 110.92 42.7503 108.086 43.0837H100.586C95.3865 43.0837 94.0865 48.0837 94.0865 50.5837V57.0837C94.4198 59.417 93.0865 64.0837 85.0865 64.0837C77.0865 64.0837 74.7532 58.0837 74.5865 55.0837V49.0837C74.1865 42.6837 64.7532 41.417 60.0865 41.5837C52.4865 40.3837 53.3643 33.0837 53.0865 28.0837C52.6865 20.8837 43.8526 19.0837 39.8526 19.0837C31.8526 18.6837 29.0865 24.917 28.5865 28.0837V35.5837C28.5865 37.7503 29.8865 42.5837 35.0865 44.5837L43.5865 45.0837C45.9198 45.417 50.4865 47.8837 50.0865 55.0837C49.9198 58.2503 47.8865 64.4837 41.0865 64.0837Z" fill="#130202"/>
<rect y="78" width="25" height="30" rx="10" fill="#130202"/>
<rect x="25" y="78" width="25" height="30" rx="10" fill="#130202"/>
<rect x="57" y="78" width="25" height="30" rx="10" fill="#130202"/>
<rect x="82" y="78" width="25" height="30" rx="10" fill="#130202"/>
<rect x="107" y="78" width="25" height="30" rx="10" fill="#130202"/>
<path d="M16.93 84.25V96.34C16.93 98.98 15.69 100.3 13.21 100.3H9.22C6.74 100.3 5.5 98.98 5.5 96.34V84.25C5.5 81.61 6.74 80.29 9.22 80.29H13.21C15.69 80.29 16.93 81.61 16.93 84.25ZM12.73 96.82V83.74C12.73 83.58 12.67 83.44 12.55 83.32C12.45 83.2 12.32 83.14 12.16 83.14H10.27C10.11 83.14 9.97 83.2 9.85 83.32C9.75 83.44 9.7 83.58 9.7 83.74V96.82C9.7 96.98 9.75 97.12 9.85 97.24C9.97 97.36 10.11 97.42 10.27 97.42H12.16C12.32 97.42 12.45 97.36 12.55 97.24C12.67 97.12 12.73 96.98 12.73 96.82ZM43.2902 100H39.0902V83.89C39.0902 83.73 39.0302 83.59 38.9102 83.47C38.8102 83.35 38.6802 83.29 38.5202 83.29H36.9002C36.7402 83.29 36.6002 83.35 36.4802 83.47C36.3802 83.59 36.3302 83.73 36.3302 83.89V100H32.1302V84.25C32.1302 81.61 33.3702 80.29 35.8502 80.29H39.5702C42.0502 80.29 43.2902 81.61 43.2902 84.25V100ZM72.0088 80.29C74.4888 80.29 75.7288 81.61 75.7288 84.25V100H71.5288V93.49H68.4988V100H64.2988V84.25C64.2988 81.61 65.5388 80.29 68.0188 80.29H72.0088ZM68.4988 90.25H71.5288V83.74C71.5288 83.58 71.4688 83.44 71.3488 83.32C71.2488 83.2 71.1188 83.14 70.9588 83.14H69.0688C68.9088 83.14 68.7688 83.2 68.6488 83.32C68.5488 83.44 68.4988 83.58 68.4988 83.74V90.25ZM95.1883 80.59V100H90.9883V80.59H95.1883ZM120.706 92.05V100H116.506V80.59H123.976C126.456 80.59 127.696 81.91 127.696 84.55V86.8C127.696 88.4 127.126 89.42 125.986 89.86C126.986 90.22 127.486 91.04 127.486 92.32V100H123.286V92.65C123.286 92.25 123.096 92.05 122.716 92.05H120.706ZM120.706 83.44V89.11H122.926C123.086 89.11 123.216 89.05 123.316 88.93C123.436 88.81 123.496 88.67 123.496 88.51V84.04C123.496 83.88 123.436 83.74 123.316 83.62C123.216 83.5 123.086 83.44 122.926 83.44H120.706Z" fill="white"/>
</svg>
