<svg width="108" height="65" viewBox="0 0 108 65" fill="none" xmlns="http://www.w3.org/2000/svg">
<path d="M32.0865 64.0837C25.2865 63.6837 22.9198 58.5837 22.5865 56.0837C22.5865 45.0837 18.7531 42.7503 15.5865 42.0837L6.58648 41.0837C0.0864873 39.5837 -0.24685 33.417 0.0864833 31.5837C0.0864833 25.5837 4.75315 23.417 7.08648 23.0837H14.5865C20.9865 23.4837 22.5865 16.917 22.5865 13.5837V7.08368C23.5865 1.08368 29.2532 -0.0829898 31.0865 0.0836767C37.8865 -0.716323 40.5865 4.41701 41.0865 7.08368V13.5837C41.0865 21.1837 47.7532 23.0837 51.0865 23.0837H59.0865C63.4865 23.0837 65.9198 17.417 66.5865 14.5837V8.58368C67.3865 3.38368 71.2532 1.41701 73.0865 1.08368H78.5865C84.1865 1.88368 85.2532 7.75034 85.0865 10.5837C85.0865 16.5837 80.7532 18.7503 78.5865 19.0837H71.5865C65.9865 19.0837 63.2532 25.0837 62.5865 28.0837V37.0837C64.5865 44.2837 70.4198 45.7503 73.0865 45.5837H81.0865C90.5865 40.0837 86.5865 37.5837 89.0865 28.5837C90.6528 22.9448 97.4198 22.417 101.086 23.0837C106.686 24.2837 107.753 30.5837 107.586 33.5837C107.586 40.3837 101.92 42.7503 99.0865 43.0837H91.5865C86.3865 43.0837 85.0865 48.0837 85.0865 50.5837V57.0837C85.4198 59.417 84.0865 64.0837 76.0865 64.0837C68.0865 64.0837 65.7532 58.0837 65.5865 55.0837V49.0837C65.1865 42.6837 55.7532 41.417 51.0865 41.5837C43.4865 40.3837 44.3643 33.0837 44.0865 28.0837C43.6865 20.8837 34.8526 19.0837 30.8526 19.0837C22.8526 18.6837 20.0865 24.917 19.5865 28.0837V35.5837C19.5865 37.7503 20.8865 42.5837 26.0865 44.5837L34.5865 45.0837C36.9198 45.417 41.4865 47.8837 41.0865 55.0837C40.9198 58.2503 38.8865 64.4837 32.0865 64.0837Z" fill="#130202"/>
</svg>
